<svg width="87" height="30" viewBox="0 0 87 30" fill="none" xmlns="http://www.w3.org/2000/svg">
<g clip-path="url(#clip0_683_6)">
<path d="M1.805 1.2942L18.405 0.0682012C20.444 -0.106799 20.968 0.0112012 22.25 0.943201L27.549 4.6762C28.423 5.3182 28.714 5.4932 28.714 6.1922V26.6652C28.714 27.9482 28.248 28.7072 26.617 28.8232L7.34 29.9902C6.116 30.0482 5.533 29.8732 4.892 29.0562L0.99 23.9822C0.29 23.0482 0 22.3492 0 21.5322V3.3342C0 2.2852 0.466 1.4102 1.805 1.2942Z" fill="black"/>
<path fill-rule="evenodd" clip-rule="evenodd" d="M18.405 0.0682012L1.805 1.2942C0.466 1.4102 0 2.2852 0 3.3342V21.5322C0 22.3492 0.29 23.0482 0.99 23.9822L4.892 29.0562C5.533 29.8732 6.116 30.0482 7.34 29.9902L26.617 28.8232C28.247 28.7072 28.714 27.9482 28.714 26.6652V6.1922C28.714 5.5292 28.452 5.3382 27.681 4.7722C27.6366 4.74024 27.5923 4.70824 27.548 4.6762L22.25 0.943201C20.968 0.0112012 20.444 -0.106799 18.405 0.0682012ZM7.776 5.8572C6.202 5.9632 5.845 5.9872 4.951 5.2602L2.678 3.4522C2.447 3.2182 2.563 2.9262 3.145 2.8682L19.103 1.7022C20.443 1.5852 21.141 2.0522 21.665 2.4602L24.402 4.4432C24.519 4.5022 24.81 4.8512 24.46 4.8512L7.98 5.8432L7.776 5.8572ZM5.941 26.4902V9.1102C5.941 8.3512 6.174 8.0012 6.872 7.9422L25.8 6.8342C26.442 6.7762 26.732 7.1842 26.732 7.9422V25.2062C26.732 25.9652 26.615 26.6072 25.567 26.6652L7.454 27.7152C6.406 27.7732 5.941 27.4242 5.941 26.4902ZM23.821 10.0422C23.937 10.5672 23.821 11.0922 23.296 11.1522L22.423 11.3252V24.1572C21.665 24.5652 20.967 24.7982 20.384 24.7982C19.452 24.7982 19.219 24.5062 18.521 23.6322L12.812 14.6502V23.3402L14.618 23.7492C14.618 23.7492 14.618 24.7992 13.161 24.7992L9.144 25.0322C9.027 24.7982 9.144 24.2152 9.551 24.0992L10.6 23.8082V12.3182L9.144 12.2002C9.027 11.6752 9.318 10.9172 10.134 10.8582L14.444 10.5682L20.384 19.6662V11.6172L18.87 11.4432C18.753 10.8002 19.219 10.3332 19.801 10.2762L23.821 10.0422Z" fill="white"/>
<path d="M41.4339 21.251V13.341H41.5709L47.2749 21.251H49.0709V9.62704H47.0739V17.529H46.9369L41.2329 9.62704H39.4299V21.25H41.4349L41.4339 21.251ZM54.7149 21.429C57.3499 21.429 58.9529 19.705 58.9529 16.845C58.9529 13.993 57.3419 12.261 54.7149 12.261C52.0969 12.261 50.4779 14.001 50.4779 16.845C50.4779 19.705 52.0729 21.429 54.7149 21.429ZM54.7149 19.753C53.3219 19.753 52.5249 18.69 52.5249 16.845C52.5249 15.008 53.3219 13.937 54.7149 13.937C56.1009 13.937 56.8979 15.008 56.8979 16.845C56.8979 18.69 56.1089 19.753 54.7149 19.753ZM60.7779 10.28V12.495H59.3849V14.09H60.7779V18.899C60.7779 20.607 61.5839 21.292 63.6059 21.292C63.9919 21.292 64.3629 21.252 64.6529 21.195V19.632C64.4109 19.656 64.2579 19.672 63.9759 19.672C63.1389 19.672 62.7679 19.286 62.7679 18.416V14.09H64.6529V12.495H62.7679V10.279L60.7779 10.28ZM65.8499 21.251H67.8399V12.438H65.8499V21.251ZM66.8409 10.981C67.5009 10.981 68.0329 10.448 68.0329 9.78004C68.0329 9.11104 67.5019 8.57104 66.8409 8.57104C66.1889 8.57104 65.6489 9.11104 65.6489 9.78004C65.6489 10.448 66.1889 10.98 66.8409 10.98V10.981ZM73.2989 21.429C75.9329 21.429 77.5359 19.705 77.5359 16.845C77.5359 13.993 75.9249 12.261 73.2989 12.261C70.6799 12.261 69.0609 14.001 69.0609 16.845C69.0609 19.705 70.6559 21.429 73.2989 21.429ZM73.2989 19.753C71.9049 19.753 71.1069 18.69 71.1069 16.845C71.1069 15.008 71.9049 13.937 73.2989 13.937C74.6839 13.937 75.4819 15.008 75.4819 16.845C75.4819 18.69 74.6919 19.753 73.2989 19.753ZM78.7249 21.251H80.7229V16.12C80.7229 14.823 81.4729 14.001 82.6639 14.001C83.8809 14.001 84.4439 14.678 84.4439 16.023V21.251H86.4429V15.548C86.4429 13.445 85.3709 12.261 83.4059 12.261C82.0919 12.261 81.2059 12.865 80.7869 13.848H80.6499V12.438H78.7249V21.251Z" fill="white"/>
</g>
<defs>
<clipPath id="clip0_683_6">
<rect width="87" height="30" fill="white"/>
</clipPath>
</defs>
</svg>
